<svg xmlns="http://www.w3.org/2000/svg" version="1.1" xmlns:xlink="http://www.w3.org/1999/xlink" xmlns:svgjs="http://svgjs.dev/svgjs" width="2000" height="2250" viewBox="0 0 2000 2250"><g transform="matrix(1,0,0,1,3.410605131648481e-13,0)"><svg viewBox="0 0 320 360" data-background-color="#ffffff" preserveAspectRatio="xMidYMid meet" height="2250" width="2000" xmlns="http://www.w3.org/2000/svg" xmlns:xlink="http://www.w3.org/1999/xlink"><g id="tight-bounds" transform="matrix(1,0,0,1,0,0)"><svg viewBox="0 0 320 360" height="360" width="320"><g><svg></svg></g><g><svg viewBox="0 0 320 360" height="360" width="320"><g><path xmlns="http://www.w3.org/2000/svg" d="M20.961 227.22l3.726 4.658-1.863-6.056c-0.466-2.795-3.726 0.466-1.863 1.398M25.153 224.425c1.397 2.329 2.795 4.658 2.795 6.987 0 3.261 2.795 4.658 5.123 5.589-3.261-3.726-5.124-13.974-7.918-12.576M204.017 26.929c7.918 0 15.371-0.932 23.756 0.931 20.495 5.124 37.729 15.371 49.374 29.811l32.606 52.169c1.397 13.042 4.192 27.482 3.726 43.319 3.261 0 2.795-4.658 6.521-5.59-3.726 9.316-5.59 20.961-6.521 34.469-2.329-7.453 0-18.632 0.466-24.687-3.261 5.124-5.124 1.397-5.124-0.932 0.466-3.726-1.397-3.261-2.795-4.658-5.124-4.658-8.384-9.782-12.11-17.7 2.329-6.055 2.795-14.905-4.658-19.563-2.329-1.397-5.124-3.726-6.521-7.453-1.863-5.124-5.124-11.179-4.193-19.097 0.466-2.329-6.987 5.124-11.179 1.863-18.166-12.576-36.332-27.016-58.224-39.127-11.645 0-20.029-4.192-24.221-9.316-3.726-4.658-0.932-10.713 4.658-11.179 3.261 0 6.987-0.932 9.782 0.932 0.466-1.863 2.329-4.192 4.657-4.192M157.904 16.215l0.932 0.466c4.658 0.932 6.987 7.453 12.11 5.124 0 3.261 0.466 6.521-0.466 8.85-1.397 3.726-5.59 3.726-8.85 3.726-31.208-1.863-49.374 11.179-68.471 22.358-5.124 3.261-10.713 5.59-14.906 9.782-20.029 18.632-41.921 35.866-47.045 70.335l-4.192 38.195c-0.466 4.192-5.124 8.384-4.192 13.508l3.26 22.824c-3.261-3.261-5.124 0.932-4.192 2.795 0.466 1.397 2.329 6.055 5.124 1.863 3.726 6.987 7.453 20.495 12.576 26.55 15.837 18.632 36.332 35.4 53.101 52.169 4.192-0.932 7.453-0.932 8.384-3.727 1.397 2.795-1.397 5.59-3.726 6.056 7.453 4.658 15.837 8.85 27.016 9.781 14.44 0.932 27.948 3.261 40.524 6.522 6.521-1.863 13.042-2.795 20.029-3.261 2.329 0 3.726-3.726 6.521-4.658l0.466-4.658c2.795 4.192 2.329-1.397 0.466-4.192 3.261 2.795 4.192 5.124 5.589 6.987 0-1.397 3.726-6.521 3.727-0.466l0.931-6.055c1.397-0.932 1.863 5.124 3.261 0.931 1.397-4.192 4.192-0.932 6.987-2.329-0.932 1.863-0.466 5.59 2.794 3.261l3.727-3.261c2.329 5.59 6.055 3.261 7.918 2.329 20.495-13.042 40.99-28.413 60.553-43.784l-0.466 6.055 2.329-7.453c2.329 2.329 4.192 0.466 5.124-0.931 2.795-4.658 6.521-9.316 12.577-13.508-7.453 20.029-16.303 35.866-27.482 48.908l-4.658 5.59c0 3.261-0.932 7.453-4.658 7.918-1.863 0.466-5.59-0.932-8.384 1.863-1.397 1.863 3.261 5.59-0.466 2.795-3.261-2.329-6.521 0-10.248 0.932-2.795 0.932 1.863 3.726 2.795 5.589 0.932 1.863 1.863 3.726 1.398 6.056l-5.124-5.59c-6.055 3.261-9.782 9.316-14.906 13.974-2.329 1.863-1.397 5.124-1.397 7.918-3.261 0-6.987-0.932-8.85 0.932-1.397 1.863-0.932 4.658-0.932 7.453-4.658-0.466-5.124-7.453-9.315-6.056-4.192 0.932-8.85 1.397-12.577 3.727 2.795 5.59-4.658 2.329-3.726 3.26-6.987-4.192-13.042-7.453-20.495-4.658-15.837-5.124-35.4-2.795-49.84-0.931 0-2.329 0.466-4.658-0.466-5.124-0.932 2.329-3.726 1.397-3.26 1.397-8.85-6.055-17.7-9.782-27.016-14.905-8.384 0.932-16.303-3.261-18.632-5.59-6.521-6.055-13.974-2.795-20.029-4.192-13.042-3.261-17.7-16.769-19.098-26.084-0.932-4.658-4.658-6.521-6.055-6.056-6.055-19.563-15.371-37.263-22.824-55.429-1.863-4.658-1.397-9.316-1.397-14.44 2.329 0.932 4.658 0.466 4.192-2.794-2.329-15.371-7.918-27.016-13.974-38.195 3.261-15.837 3.726-34.469 11.179-48.443 6.521-12.576 18.632-19.098 27.016-29.811 2.795-3.726 2.795-8.85 5.59-12.11 9.316-9.316 18.632-19.098 28.879-27.482 4.658-3.726 10.247 0 17.234-1.397 2.329-8.384 11.645-15.837 20.495-13.508 3.726 0.932 11.179-8.85 13.508-9.782 3.726-1.397 1.863 3.726 1.863 6.987 8.85-6.987 20.961-10.713 32.14-14.906" fill="#0b1edd" fill-rule="nonzero" stroke="none" stroke-width="1" stroke-linecap="butt" stroke-linejoin="miter" stroke-miterlimit="10" stroke-dasharray="" stroke-dashoffset="0" font-family="none" font-weight="none" font-size="none" text-anchor="none" style="mix-blend-mode: normal" data-fill-palette-color="tertiary"></path></g><g transform="matrix(1,0,0,1,64.00000000000001,133.37981651376145)"><svg viewBox="0 0 191.99999999999997 93.24036697247706" height="93.24036697247706" width="191.99999999999997"><g><svg viewBox="0 0 191.99999999999997 93.24036697247706" height="93.24036697247706" width="191.99999999999997"><g><svg viewBox="0 0 191.99999999999997 93.24036697247706" height="93.24036697247706" width="191.99999999999997"><g><svg viewBox="0 0 191.99999999999997 93.24036697247706" height="93.24036697247706" width="191.99999999999997"><g><svg viewBox="0 0 191.99999999999997 93.24036697247706" height="93.24036697247706" width="191.99999999999997"><g><svg viewBox="0 0 191.99999999999997 93.24036697247706" height="93.24036697247706" width="191.99999999999997"><g transform="matrix(1,0,0,1,0,0)"><svg width="191.99999999999997" viewBox="1.5099999904632568 -37.70000076293945 79.83999633789062 38.77000045776367" height="93.24036697247706" data-palette-color="#0027f5"><path d="M40.14-24.17L40.14-24.17Q40.14-23.34 40.04-22.61 39.94-21.88 39.7-21.09L39.7-21.09Q39.4-20.26 38.57-19.51 37.74-18.75 36.72-18.09 35.69-17.43 34.62-16.97 33.54-16.5 32.81-16.26L32.81-16.26Q33.06-16.21 33.79-16.09 34.52-15.97 35.33-15.77 36.13-15.58 36.82-15.31 37.5-15.04 37.7-14.75L37.7-14.75Q38.04-14.16 38.26-13.31 38.48-12.45 38.57-11.5 38.67-10.55 38.72-9.64 38.77-8.74 38.77-8.06L38.77-8.06Q38.77-7.81 38.77-7.54 38.77-7.28 38.72-7.03L38.72-7.03Q38.62-6.54 38.04-5.74 37.45-4.93 36.67-4.1 35.89-3.27 35.13-2.56 34.38-1.86 33.98-1.56L33.98-1.56Q33.45-1.17 32.93-0.88 32.42-0.59 31.84-0.34L31.84-0.34Q31.4-0.15 29.96-0.05 28.52 0.05 26.9 0.12 25.29 0.2 23.88 0.22 22.46 0.24 21.97 0.24L21.97 0.24Q18.07 0.24 14.26 0.12 10.45 0 6.54-0.2L6.54-0.2Q6.64-3.66 6.69-7.1 6.74-10.55 6.74-14.06L6.74-14.06Q6.74-18.02 6.49-21.92 6.25-25.83 5.96-29.74L5.96-29.74 2.2-30.08Q1.95-32.03 1.83-33.91 1.71-35.79 1.51-37.7L1.51-37.7Q5.52-37.6 9.52-37.5 13.53-37.4 17.53-37.3L17.53-37.3Q19.24-37.26 21.88-36.99 24.51-36.72 27.27-36.28 30.03-35.84 32.5-35.21 34.96-34.57 36.38-33.79L36.38-33.79Q37.45-33.2 38.16-32.03 38.87-30.86 39.31-29.47 39.75-28.08 39.94-26.66 40.14-25.24 40.14-24.17ZM27.15-24.37L27.15-24.37Q27.15-24.85 27.1-25.61 27.05-26.37 26.9-27.15 26.76-27.93 26.51-28.61 26.27-29.3 25.93-29.74L25.93-29.74Q25.83-29.88 25.39-29.98 24.95-30.08 24.44-30.13 23.93-30.18 23.44-30.18 22.95-30.18 22.8-30.18L22.8-30.18Q20.36-30.18 17.97-29.91 15.58-29.64 13.18-29.25L13.18-29.25Q13.48-26.86 13.72-24.46 13.96-22.07 14.31-19.68L14.31-19.68Q14.89-19.68 16.6-19.78 18.31-19.87 20.24-20.02 22.17-20.17 23.83-20.39 25.49-20.61 25.98-20.9L25.98-20.9Q26.81-21.44 26.98-22.46 27.15-23.49 27.15-24.37ZM26.76-10.6L26.76-10.6Q26.76-11.33 26.56-12.08 26.37-12.84 25.78-13.33L25.78-13.33Q25.63-13.48 25.1-13.57 24.56-13.67 23.97-13.7 23.39-13.72 22.85-13.75 22.31-13.77 22.12-13.77L22.12-13.77Q20.02-13.77 17.97-13.55 15.92-13.33 13.87-13.09L13.87-13.09 14.65-6.88Q14.89-6.88 15.8-6.93 16.7-6.98 17.9-7.06 19.09-7.13 20.43-7.23 21.78-7.32 22.95-7.47 24.12-7.62 24.95-7.79 25.78-7.96 25.98-8.2L25.98-8.2Q26.42-8.74 26.59-9.33 26.76-9.91 26.76-10.6ZM81.35-24.56L81.35-24.56Q81.35-20.56 78.9-18.26 76.46-15.97 72.46-15.77L72.46-15.77Q77.29-7.71 80.91 0.73L80.91 0.73 66.65 1.07Q66.26-2.88 65.48-6.2 64.69-9.52 63.28-13.18L63.28-13.18Q61.67-13.09 60.08-12.94 58.49-12.79 56.93-12.7L56.93-12.7 57.18-1.61Q54.39-1.46 51.61-1.46L51.61-1.46Q50.19-1.46 48.85-1.51 47.51-1.56 46.14-1.71L46.14-1.71Q46.48-6.2 46.77-10.67 47.07-15.14 47.12-19.58L47.12-19.58Q47.26-27.49 47.56-35.4L47.56-35.4Q52.15-35.64 56.71-35.94 61.28-36.23 65.87-36.23L65.87-36.23Q67.04-36.23 68.41-36.18 69.77-36.13 71.16-35.91 72.56-35.69 73.85-35.3 75.14-34.91 76.17-34.28L76.17-34.28Q78.66-32.71 80-30.1 81.35-27.49 81.35-24.56ZM70.02-25.34L70.02-25.34Q70.02-25.73 69.99-26.42 69.97-27.1 69.87-27.81 69.77-28.52 69.58-29.13 69.38-29.74 69.04-30.03L69.04-30.03Q68.8-30.22 68.21-30.32 67.62-30.42 66.97-30.49 66.31-30.57 65.7-30.59 65.09-30.62 64.84-30.62L64.84-30.62Q62.89-30.62 61.01-30.42 59.13-30.22 57.27-29.93L57.27-29.93 58.59-20.46Q59.67-20.21 60.84-20.12 62.01-20.02 63.13-20.02L63.13-20.02Q63.62-20.02 64.57-20.07 65.52-20.12 66.53-20.26 67.53-20.41 68.38-20.68 69.24-20.95 69.58-21.39L69.58-21.39Q69.72-21.58 69.82-22.14 69.92-22.71 69.94-23.32 69.97-23.93 69.99-24.51 70.02-25.1 70.02-25.34Z" opacity="1" transform="matrix(1,0,0,1,0,0)" fill="#0027f5" class="undefined-text-0" data-fill-palette-color="primary" id="text-0"></path></svg></g></svg></g></svg></g></svg></g><g></g></svg></g></svg></g></svg></g></svg></g><defs></defs></svg><rect width="320" height="360" fill="none" stroke="none" visibility="hidden"></rect></g></svg></g></svg>